<svg xmlns="http://www.w3.org/2000/svg" width="1200" height="630" viewBox="0 0 1200 630">
  <defs>
    <linearGradient id="sparke-forge" x1="0" y1="0" x2="1" y2="1">
      <stop offset="0" stop-color="#FF8A3D"/>
      <stop offset="1" stop-color="#F05A22"/>
    </linearGradient>
  </defs>
  <rect width="1200" height="630" fill="#EDEEF1"/>
  <!-- The mark: navy behind, orange gradient in front, knockout in the canvas colour. -->
  <g transform="translate(64 58) scale(1)">
    <rect x="8" y="8" width="34" height="34" rx="9" fill="#374EA2"/>
    <rect x="19" y="19" width="40" height="40" rx="11" fill="#EDEEF1"/>
    <rect x="22" y="22" width="34" height="34" rx="9" fill="url(#sparke-forge)"/>
  </g>
  <g fill="#14181F" font-family="Manrope, 'Helvetica Neue', Arial, sans-serif">
    <text x="136" y="100" font-size="30" font-weight="800" letter-spacing="-1.3">Sparke</text>
    <rect x="64" y="176" width="42" height="3" rx="1.5" fill="#F05A22"/>
    <text x="64" y="252" font-size="66" font-weight="800" letter-spacing="-2.3">A little more room</text>
    <text x="64" y="330" font-size="66" font-weight="800" letter-spacing="-2.3">for a good idea.</text>
    <text x="66" y="396" font-size="25" fill="#4A5262" font-family="'Source Sans 3', 'Helvetica Neue', Arial, sans-serif">A design workspace for people and agents.</text>
    <text x="66" y="538" font-size="15" fill="#9A8C79" font-family="'IBM Plex Mono', Menlo, monospace" letter-spacing="2.2">WEB · SLIDES · DOCUMENTS · 3D · MOTION</text>
  </g>
  <!-- A white card floating on the canvas, in Sparke colours. -->
  <g transform="translate(833 170) rotate(8 135 170)">
    <rect x="6" y="14" width="267" height="335" rx="12" fill="#14181F" opacity=".08"/>
    <rect width="267" height="335" rx="12" fill="#FFFFFF" stroke="#DCDFE4"/>
    <rect x="24" y="25" width="219" height="147" rx="8" fill="#EEF1FA"/>
    <circle cx="133" cy="98" r="49" fill="#374EA2"/>
    <path d="m112 80 45 18-45 18Z" fill="#FFFFFF"/>
    <rect x="24" y="199" width="163" height="12" rx="6" fill="#14181F"/>
    <rect x="24" y="226" width="216" height="6" rx="3" fill="#DCDFE4"/>
    <rect x="24" y="243" width="181" height="6" rx="3" fill="#DCDFE4"/>
    <rect x="24" y="280" width="84" height="29" rx="8" fill="#F05A22"/>
  </g>
</svg>
